<?xml version="1.0" encoding="utf-8" standalone="no"?>
<!DOCTYPE svg PUBLIC "-//W3C//DTD SVG 1.1//EN"
  "http://www.w3.org/Graphics/SVG/1.1/DTD/svg11.dtd">
<svg xmlns:xlink="http://www.w3.org/1999/xlink" width="864pt" height="432pt" viewBox="0 0 864 432" xmlns="http://www.w3.org/2000/svg" version="1.1">
 <metadata>
  <rdf:RDF xmlns:dc="http://purl.org/dc/elements/1.1/" xmlns:cc="http://creativecommons.org/ns#" xmlns:rdf="http://www.w3.org/1999/02/22-rdf-syntax-ns#">
   <cc:Work>
    <dc:type rdf:resource="http://purl.org/dc/dcmitype/StillImage"/>
    <dc:date>2025-08-01T09:53:42.226295</dc:date>
    <dc:format>image/svg+xml</dc:format>
    <dc:creator>
     <cc:Agent>
      <dc:title>Matplotlib v3.10.1, https://matplotlib.org/</dc:title>
     </cc:Agent>
    </dc:creator>
   </cc:Work>
  </rdf:RDF>
 </metadata>
 <defs>
  <style type="text/css">*{stroke-linejoin: round; stroke-linecap: butt}</style>
 </defs>
 <g id="figure_1">
  <g id="patch_1">
   <path d="M 0 432 
L 864 432 
L 864 0 
L 0 0 
z
" style="fill: #ffffff"/>
  </g>
  <g id="axes_1">
   <g id="patch_2">
    <path d="M 55.997054 334.96073 
L 853.2 334.96073 
L 853.2 26.88 
L 55.997054 26.88 
z
" style="fill: #ffffff"/>
   </g>
   <g id="patch_3">
    <path d="M 92.233551 37437.502285 
L 151.39518 37437.502285 
L 151.39518 287.597889 
L 92.233551 287.597889 
z
" clip-path="url(#pcb6a15a6a0)" style="fill: #87ceeb"/>
   </g>
   <g id="patch_4">
    <path d="M 166.185587 37437.502285 
L 225.347216 37437.502285 
L 225.347216 185.126184 
L 166.185587 185.126184 
z
" clip-path="url(#pcb6a15a6a0)" style="fill: #87ceeb"/>
   </g>
   <g id="patch_5">
    <path d="M 240.137623 37437.502285 
L 299.299252 37437.502285 
L 299.299252 111.310106 
L 240.137623 111.310106 
z
" clip-path="url(#pcb6a15a6a0)" style="fill: #87ceeb"/>
   </g>
   <g id="patch_6">
    <path d="M 314.089659 37437.502285 
L 373.251288 37437.502285 
L 373.251288 93.831387 
L 314.089659 93.831387 
z
" clip-path="url(#pcb6a15a6a0)" style="fill: #87ceeb"/>
   </g>
   <g id="patch_7">
    <path d="M 388.041695 37437.502285 
L 447.203323 37437.502285 
L 447.203323 186.384811 
L 388.041695 186.384811 
z
" clip-path="url(#pcb6a15a6a0)" style="fill: #87ceeb"/>
   </g>
   <g id="patch_8">
    <path d="M 461.993731 37437.502285 
L 521.155359 37437.502285 
L 521.155359 189.842612 
L 461.993731 189.842612 
z
" clip-path="url(#pcb6a15a6a0)" style="fill: #87ceeb"/>
   </g>
   <g id="patch_9">
    <path d="M 535.945766 37437.502285 
L 595.107395 37437.502285 
L 595.107395 265.912135 
L 535.945766 265.912135 
z
" clip-path="url(#pcb6a15a6a0)" style="fill: #87ceeb"/>
   </g>
   <g id="patch_10">
    <path d="M 609.897802 37437.502285 
L 669.059431 37437.502285 
L 669.059431 219.882772 
L 609.897802 219.882772 
z
" clip-path="url(#pcb6a15a6a0)" style="fill: #87ceeb"/>
   </g>
   <g id="patch_11">
    <path d="M 683.849838 37437.502285 
L 743.011467 37437.502285 
L 743.011467 229.91079 
L 683.849838 229.91079 
z
" clip-path="url(#pcb6a15a6a0)" style="fill: #87ceeb"/>
   </g>
   <g id="patch_12">
    <path d="M 757.801874 37437.502285 
L 816.963502 37437.502285 
L 816.963502 320.957061 
L 757.801874 320.957061 
z
" clip-path="url(#pcb6a15a6a0)" style="fill: #87ceeb"/>
   </g>
   <g id="matplotlib.axis_1">
    <g id="xtick_1">
     <g id="line2d_1">
      <defs>
       <path id="mb58e0373a7" d="M 0 0 
L 0 3.5 
" style="stroke: #000000; stroke-width: 0.8"/>
      </defs>
      <g>
       <use xlink:href="#mb58e0373a7" x="121.814366" y="334.96073" style="stroke: #000000; stroke-width: 0.8"/>
      </g>
     </g>
     <g id="text_1">
      <!-- initialize_env -->
      <g transform="translate(74.123328 393.35745) rotate(-45) scale(0.1 -0.1)">
       <defs>
        <path id="DejaVuSans-69" d="M 603 3500 
L 1178 3500 
L 1178 0 
L 603 0 
L 603 3500 
z
M 603 4863 
L 1178 4863 
L 1178 4134 
L 603 4134 
L 603 4863 
z
" transform="scale(0.015625)"/>
        <path id="DejaVuSans-6e" d="M 3513 2113 
L 3513 0 
L 2938 0 
L 2938 2094 
Q 2938 2591 2744 2837 
Q 2550 3084 2163 3084 
Q 1697 3084 1428 2787 
Q 1159 2491 1159 1978 
L 1159 0 
L 581 0 
L 581 3500 
L 1159 3500 
L 1159 2956 
Q 1366 3272 1645 3428 
Q 1925 3584 2291 3584 
Q 2894 3584 3203 3211 
Q 3513 2838 3513 2113 
z
" transform="scale(0.015625)"/>
        <path id="DejaVuSans-74" d="M 1172 4494 
L 1172 3500 
L 2356 3500 
L 2356 3053 
L 1172 3053 
L 1172 1153 
Q 1172 725 1289 603 
Q 1406 481 1766 481 
L 2356 481 
L 2356 0 
L 1766 0 
Q 1100 0 847 248 
Q 594 497 594 1153 
L 594 3053 
L 172 3053 
L 172 3500 
L 594 3500 
L 594 4494 
L 1172 4494 
z
" transform="scale(0.015625)"/>
        <path id="DejaVuSans-61" d="M 2194 1759 
Q 1497 1759 1228 1600 
Q 959 1441 959 1056 
Q 959 750 1161 570 
Q 1363 391 1709 391 
Q 2188 391 2477 730 
Q 2766 1069 2766 1631 
L 2766 1759 
L 2194 1759 
z
M 3341 1997 
L 3341 0 
L 2766 0 
L 2766 531 
Q 2569 213 2275 61 
Q 1981 -91 1556 -91 
Q 1019 -91 701 211 
Q 384 513 384 1019 
Q 384 1609 779 1909 
Q 1175 2209 1959 2209 
L 2766 2209 
L 2766 2266 
Q 2766 2663 2505 2880 
Q 2244 3097 1772 3097 
Q 1472 3097 1187 3025 
Q 903 2953 641 2809 
L 641 3341 
Q 956 3463 1253 3523 
Q 1550 3584 1831 3584 
Q 2591 3584 2966 3190 
Q 3341 2797 3341 1997 
z
" transform="scale(0.015625)"/>
        <path id="DejaVuSans-6c" d="M 603 4863 
L 1178 4863 
L 1178 0 
L 603 0 
L 603 4863 
z
" transform="scale(0.015625)"/>
        <path id="DejaVuSans-7a" d="M 353 3500 
L 3084 3500 
L 3084 2975 
L 922 459 
L 3084 459 
L 3084 0 
L 275 0 
L 275 525 
L 2438 3041 
L 353 3041 
L 353 3500 
z
" transform="scale(0.015625)"/>
        <path id="DejaVuSans-65" d="M 3597 1894 
L 3597 1613 
L 953 1613 
Q 991 1019 1311 708 
Q 1631 397 2203 397 
Q 2534 397 2845 478 
Q 3156 559 3463 722 
L 3463 178 
Q 3153 47 2828 -22 
Q 2503 -91 2169 -91 
Q 1331 -91 842 396 
Q 353 884 353 1716 
Q 353 2575 817 3079 
Q 1281 3584 2069 3584 
Q 2775 3584 3186 3129 
Q 3597 2675 3597 1894 
z
M 3022 2063 
Q 3016 2534 2758 2815 
Q 2500 3097 2075 3097 
Q 1594 3097 1305 2825 
Q 1016 2553 972 2059 
L 3022 2063 
z
" transform="scale(0.015625)"/>
        <path id="DejaVuSans-5f" d="M 3263 -1063 
L 3263 -1509 
L -63 -1509 
L -63 -1063 
L 3263 -1063 
z
" transform="scale(0.015625)"/>
        <path id="DejaVuSans-76" d="M 191 3500 
L 800 3500 
L 1894 563 
L 2988 3500 
L 3597 3500 
L 2284 0 
L 1503 0 
L 191 3500 
z
" transform="scale(0.015625)"/>
       </defs>
       <use xlink:href="#DejaVuSans-69"/>
       <use xlink:href="#DejaVuSans-6e" transform="translate(27.783203 0)"/>
       <use xlink:href="#DejaVuSans-69" transform="translate(91.162109 0)"/>
       <use xlink:href="#DejaVuSans-74" transform="translate(118.945312 0)"/>
       <use xlink:href="#DejaVuSans-69" transform="translate(158.154297 0)"/>
       <use xlink:href="#DejaVuSans-61" transform="translate(185.9375 0)"/>
       <use xlink:href="#DejaVuSans-6c" transform="translate(247.216797 0)"/>
       <use xlink:href="#DejaVuSans-69" transform="translate(275 0)"/>
       <use xlink:href="#DejaVuSans-7a" transform="translate(302.783203 0)"/>
       <use xlink:href="#DejaVuSans-65" transform="translate(355.273438 0)"/>
       <use xlink:href="#DejaVuSans-5f" transform="translate(416.796875 0)"/>
       <use xlink:href="#DejaVuSans-65" transform="translate(466.796875 0)"/>
       <use xlink:href="#DejaVuSans-6e" transform="translate(528.320312 0)"/>
       <use xlink:href="#DejaVuSans-76" transform="translate(591.699219 0)"/>
      </g>
     </g>
    </g>
    <g id="xtick_2">
     <g id="line2d_2">
      <g>
       <use xlink:href="#mb58e0373a7" x="195.766402" y="334.96073" style="stroke: #000000; stroke-width: 0.8"/>
      </g>
     </g>
     <g id="text_2">
      <!-- connect_to_s3 -->
      <g transform="translate(143.558719 397.749246) rotate(-45) scale(0.1 -0.1)">
       <defs>
        <path id="DejaVuSans-63" d="M 3122 3366 
L 3122 2828 
Q 2878 2963 2633 3030 
Q 2388 3097 2138 3097 
Q 1578 3097 1268 2742 
Q 959 2388 959 1747 
Q 959 1106 1268 751 
Q 1578 397 2138 397 
Q 2388 397 2633 464 
Q 2878 531 3122 666 
L 3122 134 
Q 2881 22 2623 -34 
Q 2366 -91 2075 -91 
Q 1284 -91 818 406 
Q 353 903 353 1747 
Q 353 2603 823 3093 
Q 1294 3584 2113 3584 
Q 2378 3584 2631 3529 
Q 2884 3475 3122 3366 
z
" transform="scale(0.015625)"/>
        <path id="DejaVuSans-6f" d="M 1959 3097 
Q 1497 3097 1228 2736 
Q 959 2375 959 1747 
Q 959 1119 1226 758 
Q 1494 397 1959 397 
Q 2419 397 2687 759 
Q 2956 1122 2956 1747 
Q 2956 2369 2687 2733 
Q 2419 3097 1959 3097 
z
M 1959 3584 
Q 2709 3584 3137 3096 
Q 3566 2609 3566 1747 
Q 3566 888 3137 398 
Q 2709 -91 1959 -91 
Q 1206 -91 779 398 
Q 353 888 353 1747 
Q 353 2609 779 3096 
Q 1206 3584 1959 3584 
z
" transform="scale(0.015625)"/>
        <path id="DejaVuSans-73" d="M 2834 3397 
L 2834 2853 
Q 2591 2978 2328 3040 
Q 2066 3103 1784 3103 
Q 1356 3103 1142 2972 
Q 928 2841 928 2578 
Q 928 2378 1081 2264 
Q 1234 2150 1697 2047 
L 1894 2003 
Q 2506 1872 2764 1633 
Q 3022 1394 3022 966 
Q 3022 478 2636 193 
Q 2250 -91 1575 -91 
Q 1294 -91 989 -36 
Q 684 19 347 128 
L 347 722 
Q 666 556 975 473 
Q 1284 391 1588 391 
Q 1994 391 2212 530 
Q 2431 669 2431 922 
Q 2431 1156 2273 1281 
Q 2116 1406 1581 1522 
L 1381 1569 
Q 847 1681 609 1914 
Q 372 2147 372 2553 
Q 372 3047 722 3315 
Q 1072 3584 1716 3584 
Q 2034 3584 2315 3537 
Q 2597 3491 2834 3397 
z
" transform="scale(0.015625)"/>
        <path id="DejaVuSans-33" d="M 2597 2516 
Q 3050 2419 3304 2112 
Q 3559 1806 3559 1356 
Q 3559 666 3084 287 
Q 2609 -91 1734 -91 
Q 1441 -91 1130 -33 
Q 819 25 488 141 
L 488 750 
Q 750 597 1062 519 
Q 1375 441 1716 441 
Q 2309 441 2620 675 
Q 2931 909 2931 1356 
Q 2931 1769 2642 2001 
Q 2353 2234 1838 2234 
L 1294 2234 
L 1294 2753 
L 1863 2753 
Q 2328 2753 2575 2939 
Q 2822 3125 2822 3475 
Q 2822 3834 2567 4026 
Q 2313 4219 1838 4219 
Q 1578 4219 1281 4162 
Q 984 4106 628 3988 
L 628 4550 
Q 988 4650 1302 4700 
Q 1616 4750 1894 4750 
Q 2613 4750 3031 4423 
Q 3450 4097 3450 3541 
Q 3450 3153 3228 2886 
Q 3006 2619 2597 2516 
z
" transform="scale(0.015625)"/>
       </defs>
       <use xlink:href="#DejaVuSans-63"/>
       <use xlink:href="#DejaVuSans-6f" transform="translate(54.980469 0)"/>
       <use xlink:href="#DejaVuSans-6e" transform="translate(116.162109 0)"/>
       <use xlink:href="#DejaVuSans-6e" transform="translate(179.541016 0)"/>
       <use xlink:href="#DejaVuSans-65" transform="translate(242.919922 0)"/>
       <use xlink:href="#DejaVuSans-63" transform="translate(304.443359 0)"/>
       <use xlink:href="#DejaVuSans-74" transform="translate(359.423828 0)"/>
       <use xlink:href="#DejaVuSans-5f" transform="translate(398.632812 0)"/>
       <use xlink:href="#DejaVuSans-74" transform="translate(448.632812 0)"/>
       <use xlink:href="#DejaVuSans-6f" transform="translate(487.841797 0)"/>
       <use xlink:href="#DejaVuSans-5f" transform="translate(549.023438 0)"/>
       <use xlink:href="#DejaVuSans-73" transform="translate(599.023438 0)"/>
       <use xlink:href="#DejaVuSans-33" transform="translate(651.123047 0)"/>
      </g>
     </g>
    </g>
    <g id="xtick_3">
     <g id="line2d_3">
      <g>
       <use xlink:href="#mb58e0373a7" x="269.718437" y="334.96073" style="stroke: #000000; stroke-width: 0.8"/>
      </g>
     </g>
     <g id="text_3">
      <!-- data_query -->
      <g transform="translate(228.174809 387.21004) rotate(-45) scale(0.1 -0.1)">
       <defs>
        <path id="DejaVuSans-64" d="M 2906 2969 
L 2906 4863 
L 3481 4863 
L 3481 0 
L 2906 0 
L 2906 525 
Q 2725 213 2448 61 
Q 2172 -91 1784 -91 
Q 1150 -91 751 415 
Q 353 922 353 1747 
Q 353 2572 751 3078 
Q 1150 3584 1784 3584 
Q 2172 3584 2448 3432 
Q 2725 3281 2906 2969 
z
M 947 1747 
Q 947 1113 1208 752 
Q 1469 391 1925 391 
Q 2381 391 2643 752 
Q 2906 1113 2906 1747 
Q 2906 2381 2643 2742 
Q 2381 3103 1925 3103 
Q 1469 3103 1208 2742 
Q 947 2381 947 1747 
z
" transform="scale(0.015625)"/>
        <path id="DejaVuSans-71" d="M 947 1747 
Q 947 1113 1208 752 
Q 1469 391 1925 391 
Q 2381 391 2643 752 
Q 2906 1113 2906 1747 
Q 2906 2381 2643 2742 
Q 2381 3103 1925 3103 
Q 1469 3103 1208 2742 
Q 947 2381 947 1747 
z
M 2906 525 
Q 2725 213 2448 61 
Q 2172 -91 1784 -91 
Q 1150 -91 751 415 
Q 353 922 353 1747 
Q 353 2572 751 3078 
Q 1150 3584 1784 3584 
Q 2172 3584 2448 3432 
Q 2725 3281 2906 2969 
L 2906 3500 
L 3481 3500 
L 3481 -1331 
L 2906 -1331 
L 2906 525 
z
" transform="scale(0.015625)"/>
        <path id="DejaVuSans-75" d="M 544 1381 
L 544 3500 
L 1119 3500 
L 1119 1403 
Q 1119 906 1312 657 
Q 1506 409 1894 409 
Q 2359 409 2629 706 
Q 2900 1003 2900 1516 
L 2900 3500 
L 3475 3500 
L 3475 0 
L 2900 0 
L 2900 538 
Q 2691 219 2414 64 
Q 2138 -91 1772 -91 
Q 1169 -91 856 284 
Q 544 659 544 1381 
z
M 1991 3584 
L 1991 3584 
z
" transform="scale(0.015625)"/>
        <path id="DejaVuSans-72" d="M 2631 2963 
Q 2534 3019 2420 3045 
Q 2306 3072 2169 3072 
Q 1681 3072 1420 2755 
Q 1159 2438 1159 1844 
L 1159 0 
L 581 0 
L 581 3500 
L 1159 3500 
L 1159 2956 
Q 1341 3275 1631 3429 
Q 1922 3584 2338 3584 
Q 2397 3584 2469 3576 
Q 2541 3569 2628 3553 
L 2631 2963 
z
" transform="scale(0.015625)"/>
        <path id="DejaVuSans-79" d="M 2059 -325 
Q 1816 -950 1584 -1140 
Q 1353 -1331 966 -1331 
L 506 -1331 
L 506 -850 
L 844 -850 
Q 1081 -850 1212 -737 
Q 1344 -625 1503 -206 
L 1606 56 
L 191 3500 
L 800 3500 
L 1894 763 
L 2988 3500 
L 3597 3500 
L 2059 -325 
z
" transform="scale(0.015625)"/>
       </defs>
       <use xlink:href="#DejaVuSans-64"/>
       <use xlink:href="#DejaVuSans-61" transform="translate(63.476562 0)"/>
       <use xlink:href="#DejaVuSans-74" transform="translate(124.755859 0)"/>
       <use xlink:href="#DejaVuSans-61" transform="translate(163.964844 0)"/>
       <use xlink:href="#DejaVuSans-5f" transform="translate(225.244141 0)"/>
       <use xlink:href="#DejaVuSans-71" transform="translate(275.244141 0)"/>
       <use xlink:href="#DejaVuSans-75" transform="translate(338.720703 0)"/>
       <use xlink:href="#DejaVuSans-65" transform="translate(402.099609 0)"/>
       <use xlink:href="#DejaVuSans-72" transform="translate(463.623047 0)"/>
       <use xlink:href="#DejaVuSans-79" transform="translate(504.736328 0)"/>
      </g>
     </g>
    </g>
    <g id="xtick_4">
     <g id="line2d_4">
      <g>
       <use xlink:href="#mb58e0373a7" x="343.670473" y="334.96073" style="stroke: #000000; stroke-width: 0.8"/>
      </g>
     </g>
     <g id="text_4">
      <!-- load_bands_from_s3 -->
      <g transform="translate(270.173352 419.163532) rotate(-45) scale(0.1 -0.1)">
       <defs>
        <path id="DejaVuSans-62" d="M 3116 1747 
Q 3116 2381 2855 2742 
Q 2594 3103 2138 3103 
Q 1681 3103 1420 2742 
Q 1159 2381 1159 1747 
Q 1159 1113 1420 752 
Q 1681 391 2138 391 
Q 2594 391 2855 752 
Q 3116 1113 3116 1747 
z
M 1159 2969 
Q 1341 3281 1617 3432 
Q 1894 3584 2278 3584 
Q 2916 3584 3314 3078 
Q 3713 2572 3713 1747 
Q 3713 922 3314 415 
Q 2916 -91 2278 -91 
Q 1894 -91 1617 61 
Q 1341 213 1159 525 
L 1159 0 
L 581 0 
L 581 4863 
L 1159 4863 
L 1159 2969 
z
" transform="scale(0.015625)"/>
        <path id="DejaVuSans-66" d="M 2375 4863 
L 2375 4384 
L 1825 4384 
Q 1516 4384 1395 4259 
Q 1275 4134 1275 3809 
L 1275 3500 
L 2222 3500 
L 2222 3053 
L 1275 3053 
L 1275 0 
L 697 0 
L 697 3053 
L 147 3053 
L 147 3500 
L 697 3500 
L 697 3744 
Q 697 4328 969 4595 
Q 1241 4863 1831 4863 
L 2375 4863 
z
" transform="scale(0.015625)"/>
        <path id="DejaVuSans-6d" d="M 3328 2828 
Q 3544 3216 3844 3400 
Q 4144 3584 4550 3584 
Q 5097 3584 5394 3201 
Q 5691 2819 5691 2113 
L 5691 0 
L 5113 0 
L 5113 2094 
Q 5113 2597 4934 2840 
Q 4756 3084 4391 3084 
Q 3944 3084 3684 2787 
Q 3425 2491 3425 1978 
L 3425 0 
L 2847 0 
L 2847 2094 
Q 2847 2600 2669 2842 
Q 2491 3084 2119 3084 
Q 1678 3084 1418 2786 
Q 1159 2488 1159 1978 
L 1159 0 
L 581 0 
L 581 3500 
L 1159 3500 
L 1159 2956 
Q 1356 3278 1631 3431 
Q 1906 3584 2284 3584 
Q 2666 3584 2933 3390 
Q 3200 3197 3328 2828 
z
" transform="scale(0.015625)"/>
       </defs>
       <use xlink:href="#DejaVuSans-6c"/>
       <use xlink:href="#DejaVuSans-6f" transform="translate(27.783203 0)"/>
       <use xlink:href="#DejaVuSans-61" transform="translate(88.964844 0)"/>
       <use xlink:href="#DejaVuSans-64" transform="translate(150.244141 0)"/>
       <use xlink:href="#DejaVuSans-5f" transform="translate(213.720703 0)"/>
       <use xlink:href="#DejaVuSans-62" transform="translate(263.720703 0)"/>
       <use xlink:href="#DejaVuSans-61" transform="translate(327.197266 0)"/>
       <use xlink:href="#DejaVuSans-6e" transform="translate(388.476562 0)"/>
       <use xlink:href="#DejaVuSans-64" transform="translate(451.855469 0)"/>
       <use xlink:href="#DejaVuSans-73" transform="translate(515.332031 0)"/>
       <use xlink:href="#DejaVuSans-5f" transform="translate(567.431641 0)"/>
       <use xlink:href="#DejaVuSans-66" transform="translate(617.431641 0)"/>
       <use xlink:href="#DejaVuSans-72" transform="translate(652.636719 0)"/>
       <use xlink:href="#DejaVuSans-6f" transform="translate(691.5 0)"/>
       <use xlink:href="#DejaVuSans-6d" transform="translate(752.681641 0)"/>
       <use xlink:href="#DejaVuSans-5f" transform="translate(850.09375 0)"/>
       <use xlink:href="#DejaVuSans-73" transform="translate(900.09375 0)"/>
       <use xlink:href="#DejaVuSans-33" transform="translate(952.193359 0)"/>
      </g>
     </g>
    </g>
    <g id="xtick_5">
     <g id="line2d_5">
      <g>
       <use xlink:href="#mb58e0373a7" x="417.622509" y="334.96073" style="stroke: #000000; stroke-width: 0.8"/>
      </g>
     </g>
     <g id="text_5">
      <!-- load_model -->
      <g transform="translate(375.287805 388.001116) rotate(-45) scale(0.1 -0.1)">
       <use xlink:href="#DejaVuSans-6c"/>
       <use xlink:href="#DejaVuSans-6f" transform="translate(27.783203 0)"/>
       <use xlink:href="#DejaVuSans-61" transform="translate(88.964844 0)"/>
       <use xlink:href="#DejaVuSans-64" transform="translate(150.244141 0)"/>
       <use xlink:href="#DejaVuSans-5f" transform="translate(213.720703 0)"/>
       <use xlink:href="#DejaVuSans-6d" transform="translate(263.720703 0)"/>
       <use xlink:href="#DejaVuSans-6f" transform="translate(361.132812 0)"/>
       <use xlink:href="#DejaVuSans-64" transform="translate(422.314453 0)"/>
       <use xlink:href="#DejaVuSans-65" transform="translate(485.791016 0)"/>
       <use xlink:href="#DejaVuSans-6c" transform="translate(547.314453 0)"/>
      </g>
     </g>
    </g>
    <g id="xtick_6">
     <g id="line2d_6">
      <g>
       <use xlink:href="#mb58e0373a7" x="491.574545" y="334.96073" style="stroke: #000000; stroke-width: 0.8"/>
      </g>
     </g>
     <g id="text_6">
      <!-- preprocess -->
      <g transform="translate(451.346798 386.090822) rotate(-45) scale(0.1 -0.1)">
       <defs>
        <path id="DejaVuSans-70" d="M 1159 525 
L 1159 -1331 
L 581 -1331 
L 581 3500 
L 1159 3500 
L 1159 2969 
Q 1341 3281 1617 3432 
Q 1894 3584 2278 3584 
Q 2916 3584 3314 3078 
Q 3713 2572 3713 1747 
Q 3713 922 3314 415 
Q 2916 -91 2278 -91 
Q 1894 -91 1617 61 
Q 1341 213 1159 525 
z
M 3116 1747 
Q 3116 2381 2855 2742 
Q 2594 3103 2138 3103 
Q 1681 3103 1420 2742 
Q 1159 2381 1159 1747 
Q 1159 1113 1420 752 
Q 1681 391 2138 391 
Q 2594 391 2855 752 
Q 3116 1113 3116 1747 
z
" transform="scale(0.015625)"/>
       </defs>
       <use xlink:href="#DejaVuSans-70"/>
       <use xlink:href="#DejaVuSans-72" transform="translate(63.476562 0)"/>
       <use xlink:href="#DejaVuSans-65" transform="translate(102.339844 0)"/>
       <use xlink:href="#DejaVuSans-70" transform="translate(163.863281 0)"/>
       <use xlink:href="#DejaVuSans-72" transform="translate(227.339844 0)"/>
       <use xlink:href="#DejaVuSans-6f" transform="translate(266.203125 0)"/>
       <use xlink:href="#DejaVuSans-63" transform="translate(327.384766 0)"/>
       <use xlink:href="#DejaVuSans-65" transform="translate(382.365234 0)"/>
       <use xlink:href="#DejaVuSans-73" transform="translate(443.888672 0)"/>
       <use xlink:href="#DejaVuSans-73" transform="translate(495.988281 0)"/>
      </g>
     </g>
    </g>
    <g id="xtick_7">
     <g id="line2d_7">
      <g>
       <use xlink:href="#mb58e0373a7" x="565.526581" y="334.96073" style="stroke: #000000; stroke-width: 0.8"/>
      </g>
     </g>
     <g id="text_7">
      <!-- predict -->
      <g transform="translate(539.354791 372.034866) rotate(-45) scale(0.1 -0.1)">
       <use xlink:href="#DejaVuSans-70"/>
       <use xlink:href="#DejaVuSans-72" transform="translate(63.476562 0)"/>
       <use xlink:href="#DejaVuSans-65" transform="translate(102.339844 0)"/>
       <use xlink:href="#DejaVuSans-64" transform="translate(163.863281 0)"/>
       <use xlink:href="#DejaVuSans-69" transform="translate(227.339844 0)"/>
       <use xlink:href="#DejaVuSans-63" transform="translate(255.123047 0)"/>
       <use xlink:href="#DejaVuSans-74" transform="translate(310.103516 0)"/>
      </g>
     </g>
    </g>
    <g id="xtick_8">
     <g id="line2d_8">
      <g>
       <use xlink:href="#mb58e0373a7" x="639.478616" y="334.96073" style="stroke: #000000; stroke-width: 0.8"/>
      </g>
     </g>
     <g id="text_8">
      <!-- postprocess -->
      <g transform="translate(595.567285 389.774407) rotate(-45) scale(0.1 -0.1)">
       <use xlink:href="#DejaVuSans-70"/>
       <use xlink:href="#DejaVuSans-6f" transform="translate(63.476562 0)"/>
       <use xlink:href="#DejaVuSans-73" transform="translate(124.658203 0)"/>
       <use xlink:href="#DejaVuSans-74" transform="translate(176.757812 0)"/>
       <use xlink:href="#DejaVuSans-70" transform="translate(215.966797 0)"/>
       <use xlink:href="#DejaVuSans-72" transform="translate(279.443359 0)"/>
       <use xlink:href="#DejaVuSans-6f" transform="translate(318.306641 0)"/>
       <use xlink:href="#DejaVuSans-63" transform="translate(379.488281 0)"/>
       <use xlink:href="#DejaVuSans-65" transform="translate(434.46875 0)"/>
       <use xlink:href="#DejaVuSans-73" transform="translate(495.992188 0)"/>
       <use xlink:href="#DejaVuSans-73" transform="translate(548.091797 0)"/>
      </g>
     </g>
    </g>
    <g id="xtick_9">
     <g id="line2d_9">
      <g>
       <use xlink:href="#mb58e0373a7" x="713.430652" y="334.96073" style="stroke: #000000; stroke-width: 0.8"/>
      </g>
     </g>
     <g id="text_9">
      <!-- generate_plot_band -->
      <g transform="translate(641.31239 417.784674) rotate(-45) scale(0.1 -0.1)">
       <defs>
        <path id="DejaVuSans-67" d="M 2906 1791 
Q 2906 2416 2648 2759 
Q 2391 3103 1925 3103 
Q 1463 3103 1205 2759 
Q 947 2416 947 1791 
Q 947 1169 1205 825 
Q 1463 481 1925 481 
Q 2391 481 2648 825 
Q 2906 1169 2906 1791 
z
M 3481 434 
Q 3481 -459 3084 -895 
Q 2688 -1331 1869 -1331 
Q 1566 -1331 1297 -1286 
Q 1028 -1241 775 -1147 
L 775 -588 
Q 1028 -725 1275 -790 
Q 1522 -856 1778 -856 
Q 2344 -856 2625 -561 
Q 2906 -266 2906 331 
L 2906 616 
Q 2728 306 2450 153 
Q 2172 0 1784 0 
Q 1141 0 747 490 
Q 353 981 353 1791 
Q 353 2603 747 3093 
Q 1141 3584 1784 3584 
Q 2172 3584 2450 3431 
Q 2728 3278 2906 2969 
L 2906 3500 
L 3481 3500 
L 3481 434 
z
" transform="scale(0.015625)"/>
       </defs>
       <use xlink:href="#DejaVuSans-67"/>
       <use xlink:href="#DejaVuSans-65" transform="translate(63.476562 0)"/>
       <use xlink:href="#DejaVuSans-6e" transform="translate(125 0)"/>
       <use xlink:href="#DejaVuSans-65" transform="translate(188.378906 0)"/>
       <use xlink:href="#DejaVuSans-72" transform="translate(249.902344 0)"/>
       <use xlink:href="#DejaVuSans-61" transform="translate(291.015625 0)"/>
       <use xlink:href="#DejaVuSans-74" transform="translate(352.294922 0)"/>
       <use xlink:href="#DejaVuSans-65" transform="translate(391.503906 0)"/>
       <use xlink:href="#DejaVuSans-5f" transform="translate(453.027344 0)"/>
       <use xlink:href="#DejaVuSans-70" transform="translate(503.027344 0)"/>
       <use xlink:href="#DejaVuSans-6c" transform="translate(566.503906 0)"/>
       <use xlink:href="#DejaVuSans-6f" transform="translate(594.287109 0)"/>
       <use xlink:href="#DejaVuSans-74" transform="translate(655.46875 0)"/>
       <use xlink:href="#DejaVuSans-5f" transform="translate(694.677734 0)"/>
       <use xlink:href="#DejaVuSans-62" transform="translate(744.677734 0)"/>
       <use xlink:href="#DejaVuSans-61" transform="translate(808.154297 0)"/>
       <use xlink:href="#DejaVuSans-6e" transform="translate(869.433594 0)"/>
       <use xlink:href="#DejaVuSans-64" transform="translate(932.8125 0)"/>
      </g>
     </g>
    </g>
    <g id="xtick_10">
     <g id="line2d_10">
      <g>
       <use xlink:href="#mb58e0373a7" x="787.382688" y="334.96073" style="stroke: #000000; stroke-width: 0.8"/>
      </g>
     </g>
     <g id="text_10">
      <!-- generate_tci_plot -->
      <g transform="translate(724.432507 408.616593) rotate(-45) scale(0.1 -0.1)">
       <use xlink:href="#DejaVuSans-67"/>
       <use xlink:href="#DejaVuSans-65" transform="translate(63.476562 0)"/>
       <use xlink:href="#DejaVuSans-6e" transform="translate(125 0)"/>
       <use xlink:href="#DejaVuSans-65" transform="translate(188.378906 0)"/>
       <use xlink:href="#DejaVuSans-72" transform="translate(249.902344 0)"/>
       <use xlink:href="#DejaVuSans-61" transform="translate(291.015625 0)"/>
       <use xlink:href="#DejaVuSans-74" transform="translate(352.294922 0)"/>
       <use xlink:href="#DejaVuSans-65" transform="translate(391.503906 0)"/>
       <use xlink:href="#DejaVuSans-5f" transform="translate(453.027344 0)"/>
       <use xlink:href="#DejaVuSans-74" transform="translate(503.027344 0)"/>
       <use xlink:href="#DejaVuSans-63" transform="translate(542.236328 0)"/>
       <use xlink:href="#DejaVuSans-69" transform="translate(597.216797 0)"/>
       <use xlink:href="#DejaVuSans-5f" transform="translate(625 0)"/>
       <use xlink:href="#DejaVuSans-70" transform="translate(675 0)"/>
       <use xlink:href="#DejaVuSans-6c" transform="translate(738.476562 0)"/>
       <use xlink:href="#DejaVuSans-6f" transform="translate(766.259766 0)"/>
       <use xlink:href="#DejaVuSans-74" transform="translate(827.441406 0)"/>
      </g>
     </g>
    </g>
   </g>
   <g id="matplotlib.axis_2">
    <g id="ytick_1">
     <g id="line2d_11">
      <defs>
       <path id="m5debb15cac" d="M 0 0 
L -3.5 0 
" style="stroke: #000000; stroke-width: 0.8"/>
      </defs>
      <g>
       <use xlink:href="#m5debb15cac" x="55.997054" y="322.57136" style="stroke: #000000; stroke-width: 0.8"/>
      </g>
     </g>
     <g id="text_11">
      <!-- $\mathdefault{10^{-6}}$ -->
      <g transform="translate(25.497054 326.370579) scale(0.1 -0.1)">
       <defs>
        <path id="DejaVuSans-31" d="M 794 531 
L 1825 531 
L 1825 4091 
L 703 3866 
L 703 4441 
L 1819 4666 
L 2450 4666 
L 2450 531 
L 3481 531 
L 3481 0 
L 794 0 
L 794 531 
z
" transform="scale(0.015625)"/>
        <path id="DejaVuSans-30" d="M 2034 4250 
Q 1547 4250 1301 3770 
Q 1056 3291 1056 2328 
Q 1056 1369 1301 889 
Q 1547 409 2034 409 
Q 2525 409 2770 889 
Q 3016 1369 3016 2328 
Q 3016 3291 2770 3770 
Q 2525 4250 2034 4250 
z
M 2034 4750 
Q 2819 4750 3233 4129 
Q 3647 3509 3647 2328 
Q 3647 1150 3233 529 
Q 2819 -91 2034 -91 
Q 1250 -91 836 529 
Q 422 1150 422 2328 
Q 422 3509 836 4129 
Q 1250 4750 2034 4750 
z
" transform="scale(0.015625)"/>
        <path id="DejaVuSans-2212" d="M 678 2272 
L 4684 2272 
L 4684 1741 
L 678 1741 
L 678 2272 
z
" transform="scale(0.015625)"/>
        <path id="DejaVuSans-36" d="M 2113 2584 
Q 1688 2584 1439 2293 
Q 1191 2003 1191 1497 
Q 1191 994 1439 701 
Q 1688 409 2113 409 
Q 2538 409 2786 701 
Q 3034 994 3034 1497 
Q 3034 2003 2786 2293 
Q 2538 2584 2113 2584 
z
M 3366 4563 
L 3366 3988 
Q 3128 4100 2886 4159 
Q 2644 4219 2406 4219 
Q 1781 4219 1451 3797 
Q 1122 3375 1075 2522 
Q 1259 2794 1537 2939 
Q 1816 3084 2150 3084 
Q 2853 3084 3261 2657 
Q 3669 2231 3669 1497 
Q 3669 778 3244 343 
Q 2819 -91 2113 -91 
Q 1303 -91 875 529 
Q 447 1150 447 2328 
Q 447 3434 972 4092 
Q 1497 4750 2381 4750 
Q 2619 4750 2861 4703 
Q 3103 4656 3366 4563 
z
" transform="scale(0.015625)"/>
       </defs>
       <use xlink:href="#DejaVuSans-31" transform="translate(0 0.765625)"/>
       <use xlink:href="#DejaVuSans-30" transform="translate(63.623047 0.765625)"/>
       <use xlink:href="#DejaVuSans-2212" transform="translate(128.203125 39.046875) scale(0.7)"/>
       <use xlink:href="#DejaVuSans-36" transform="translate(186.855469 39.046875) scale(0.7)"/>
      </g>
     </g>
    </g>
    <g id="ytick_2">
     <g id="line2d_12">
      <g>
       <use xlink:href="#m5debb15cac" x="55.997054" y="285.232395" style="stroke: #000000; stroke-width: 0.8"/>
      </g>
     </g>
     <g id="text_12">
      <!-- $\mathdefault{10^{-5}}$ -->
      <g transform="translate(25.497054 289.031614) scale(0.1 -0.1)">
       <defs>
        <path id="DejaVuSans-35" d="M 691 4666 
L 3169 4666 
L 3169 4134 
L 1269 4134 
L 1269 2991 
Q 1406 3038 1543 3061 
Q 1681 3084 1819 3084 
Q 2600 3084 3056 2656 
Q 3513 2228 3513 1497 
Q 3513 744 3044 326 
Q 2575 -91 1722 -91 
Q 1428 -91 1123 -41 
Q 819 9 494 109 
L 494 744 
Q 775 591 1075 516 
Q 1375 441 1709 441 
Q 2250 441 2565 725 
Q 2881 1009 2881 1497 
Q 2881 1984 2565 2268 
Q 2250 2553 1709 2553 
Q 1456 2553 1204 2497 
Q 953 2441 691 2322 
L 691 4666 
z
" transform="scale(0.015625)"/>
       </defs>
       <use xlink:href="#DejaVuSans-31" transform="translate(0 0.684375)"/>
       <use xlink:href="#DejaVuSans-30" transform="translate(63.623047 0.684375)"/>
       <use xlink:href="#DejaVuSans-2212" transform="translate(128.203125 38.965625) scale(0.7)"/>
       <use xlink:href="#DejaVuSans-35" transform="translate(186.855469 38.965625) scale(0.7)"/>
      </g>
     </g>
    </g>
    <g id="ytick_3">
     <g id="line2d_13">
      <g>
       <use xlink:href="#m5debb15cac" x="55.997054" y="247.893431" style="stroke: #000000; stroke-width: 0.8"/>
      </g>
     </g>
     <g id="text_13">
      <!-- $\mathdefault{10^{-4}}$ -->
      <g transform="translate(25.497054 251.692649) scale(0.1 -0.1)">
       <defs>
        <path id="DejaVuSans-34" d="M 2419 4116 
L 825 1625 
L 2419 1625 
L 2419 4116 
z
M 2253 4666 
L 3047 4666 
L 3047 1625 
L 3713 1625 
L 3713 1100 
L 3047 1100 
L 3047 0 
L 2419 0 
L 2419 1100 
L 313 1100 
L 313 1709 
L 2253 4666 
z
" transform="scale(0.015625)"/>
       </defs>
       <use xlink:href="#DejaVuSans-31" transform="translate(0 0.684375)"/>
       <use xlink:href="#DejaVuSans-30" transform="translate(63.623047 0.684375)"/>
       <use xlink:href="#DejaVuSans-2212" transform="translate(128.203125 38.965625) scale(0.7)"/>
       <use xlink:href="#DejaVuSans-34" transform="translate(186.855469 38.965625) scale(0.7)"/>
      </g>
     </g>
    </g>
    <g id="ytick_4">
     <g id="line2d_14">
      <g>
       <use xlink:href="#m5debb15cac" x="55.997054" y="210.554466" style="stroke: #000000; stroke-width: 0.8"/>
      </g>
     </g>
     <g id="text_14">
      <!-- $\mathdefault{10^{-3}}$ -->
      <g transform="translate(25.497054 214.353685) scale(0.1 -0.1)">
       <use xlink:href="#DejaVuSans-31" transform="translate(0 0.765625)"/>
       <use xlink:href="#DejaVuSans-30" transform="translate(63.623047 0.765625)"/>
       <use xlink:href="#DejaVuSans-2212" transform="translate(128.203125 39.046875) scale(0.7)"/>
       <use xlink:href="#DejaVuSans-33" transform="translate(186.855469 39.046875) scale(0.7)"/>
      </g>
     </g>
    </g>
    <g id="ytick_5">
     <g id="line2d_15">
      <g>
       <use xlink:href="#m5debb15cac" x="55.997054" y="173.215501" style="stroke: #000000; stroke-width: 0.8"/>
      </g>
     </g>
     <g id="text_15">
      <!-- $\mathdefault{10^{-2}}$ -->
      <g transform="translate(25.497054 177.01472) scale(0.1 -0.1)">
       <defs>
        <path id="DejaVuSans-32" d="M 1228 531 
L 3431 531 
L 3431 0 
L 469 0 
L 469 531 
Q 828 903 1448 1529 
Q 2069 2156 2228 2338 
Q 2531 2678 2651 2914 
Q 2772 3150 2772 3378 
Q 2772 3750 2511 3984 
Q 2250 4219 1831 4219 
Q 1534 4219 1204 4116 
Q 875 4013 500 3803 
L 500 4441 
Q 881 4594 1212 4672 
Q 1544 4750 1819 4750 
Q 2544 4750 2975 4387 
Q 3406 4025 3406 3419 
Q 3406 3131 3298 2873 
Q 3191 2616 2906 2266 
Q 2828 2175 2409 1742 
Q 1991 1309 1228 531 
z
" transform="scale(0.015625)"/>
       </defs>
       <use xlink:href="#DejaVuSans-31" transform="translate(0 0.765625)"/>
       <use xlink:href="#DejaVuSans-30" transform="translate(63.623047 0.765625)"/>
       <use xlink:href="#DejaVuSans-2212" transform="translate(128.203125 39.046875) scale(0.7)"/>
       <use xlink:href="#DejaVuSans-32" transform="translate(186.855469 39.046875) scale(0.7)"/>
      </g>
     </g>
    </g>
    <g id="ytick_6">
     <g id="line2d_16">
      <g>
       <use xlink:href="#m5debb15cac" x="55.997054" y="135.876536" style="stroke: #000000; stroke-width: 0.8"/>
      </g>
     </g>
     <g id="text_16">
      <!-- $\mathdefault{10^{-1}}$ -->
      <g transform="translate(25.497054 139.675755) scale(0.1 -0.1)">
       <use xlink:href="#DejaVuSans-31" transform="translate(0 0.684375)"/>
       <use xlink:href="#DejaVuSans-30" transform="translate(63.623047 0.684375)"/>
       <use xlink:href="#DejaVuSans-2212" transform="translate(128.203125 38.965625) scale(0.7)"/>
       <use xlink:href="#DejaVuSans-31" transform="translate(186.855469 38.965625) scale(0.7)"/>
      </g>
     </g>
    </g>
    <g id="ytick_7">
     <g id="line2d_17">
      <g>
       <use xlink:href="#m5debb15cac" x="55.997054" y="98.537572" style="stroke: #000000; stroke-width: 0.8"/>
      </g>
     </g>
     <g id="text_17">
      <!-- $\mathdefault{10^{0}}$ -->
      <g transform="translate(31.397054 102.336791) scale(0.1 -0.1)">
       <use xlink:href="#DejaVuSans-31" transform="translate(0 0.765625)"/>
       <use xlink:href="#DejaVuSans-30" transform="translate(63.623047 0.765625)"/>
       <use xlink:href="#DejaVuSans-30" transform="translate(128.203125 39.046875) scale(0.7)"/>
      </g>
     </g>
    </g>
    <g id="ytick_8">
     <g id="line2d_18">
      <g>
       <use xlink:href="#m5debb15cac" x="55.997054" y="61.198607" style="stroke: #000000; stroke-width: 0.8"/>
      </g>
     </g>
     <g id="text_18">
      <!-- $\mathdefault{10^{1}}$ -->
      <g transform="translate(31.397054 64.997826) scale(0.1 -0.1)">
       <use xlink:href="#DejaVuSans-31" transform="translate(0 0.684375)"/>
       <use xlink:href="#DejaVuSans-30" transform="translate(63.623047 0.684375)"/>
       <use xlink:href="#DejaVuSans-31" transform="translate(128.203125 38.965625) scale(0.7)"/>
      </g>
     </g>
    </g>
    <g id="ytick_9">
     <g id="line2d_19">
      <defs>
       <path id="m0b8dbedb36" d="M 0 0 
L -2 0 
" style="stroke: #000000; stroke-width: 0.6"/>
      </defs>
      <g>
       <use xlink:href="#m0b8dbedb36" x="55.997054" y="333.811508" style="stroke: #000000; stroke-width: 0.6"/>
      </g>
     </g>
    </g>
    <g id="ytick_10">
     <g id="line2d_20">
      <g>
       <use xlink:href="#m0b8dbedb36" x="55.997054" y="330.854963" style="stroke: #000000; stroke-width: 0.6"/>
      </g>
     </g>
    </g>
    <g id="ytick_11">
     <g id="line2d_21">
      <g>
       <use xlink:href="#m0b8dbedb36" x="55.997054" y="328.355239" style="stroke: #000000; stroke-width: 0.6"/>
      </g>
     </g>
    </g>
    <g id="ytick_12">
     <g id="line2d_22">
      <g>
       <use xlink:href="#m0b8dbedb36" x="55.997054" y="326.18988" style="stroke: #000000; stroke-width: 0.6"/>
      </g>
     </g>
    </g>
    <g id="ytick_13">
     <g id="line2d_23">
      <g>
       <use xlink:href="#m0b8dbedb36" x="55.997054" y="324.279897" style="stroke: #000000; stroke-width: 0.6"/>
      </g>
     </g>
    </g>
    <g id="ytick_14">
     <g id="line2d_24">
      <g>
       <use xlink:href="#m0b8dbedb36" x="55.997054" y="311.331212" style="stroke: #000000; stroke-width: 0.6"/>
      </g>
     </g>
    </g>
    <g id="ytick_15">
     <g id="line2d_25">
      <g>
       <use xlink:href="#m0b8dbedb36" x="55.997054" y="304.756146" style="stroke: #000000; stroke-width: 0.6"/>
      </g>
     </g>
    </g>
    <g id="ytick_16">
     <g id="line2d_26">
      <g>
       <use xlink:href="#m0b8dbedb36" x="55.997054" y="300.091063" style="stroke: #000000; stroke-width: 0.6"/>
      </g>
     </g>
    </g>
    <g id="ytick_17">
     <g id="line2d_27">
      <g>
       <use xlink:href="#m0b8dbedb36" x="55.997054" y="296.472544" style="stroke: #000000; stroke-width: 0.6"/>
      </g>
     </g>
    </g>
    <g id="ytick_18">
     <g id="line2d_28">
      <g>
       <use xlink:href="#m0b8dbedb36" x="55.997054" y="293.515998" style="stroke: #000000; stroke-width: 0.6"/>
      </g>
     </g>
    </g>
    <g id="ytick_19">
     <g id="line2d_29">
      <g>
       <use xlink:href="#m0b8dbedb36" x="55.997054" y="291.016274" style="stroke: #000000; stroke-width: 0.6"/>
      </g>
     </g>
    </g>
    <g id="ytick_20">
     <g id="line2d_30">
      <g>
       <use xlink:href="#m0b8dbedb36" x="55.997054" y="288.850915" style="stroke: #000000; stroke-width: 0.6"/>
      </g>
     </g>
    </g>
    <g id="ytick_21">
     <g id="line2d_31">
      <g>
       <use xlink:href="#m0b8dbedb36" x="55.997054" y="286.940933" style="stroke: #000000; stroke-width: 0.6"/>
      </g>
     </g>
    </g>
    <g id="ytick_22">
     <g id="line2d_32">
      <g>
       <use xlink:href="#m0b8dbedb36" x="55.997054" y="273.992247" style="stroke: #000000; stroke-width: 0.6"/>
      </g>
     </g>
    </g>
    <g id="ytick_23">
     <g id="line2d_33">
      <g>
       <use xlink:href="#m0b8dbedb36" x="55.997054" y="267.417182" style="stroke: #000000; stroke-width: 0.6"/>
      </g>
     </g>
    </g>
    <g id="ytick_24">
     <g id="line2d_34">
      <g>
       <use xlink:href="#m0b8dbedb36" x="55.997054" y="262.752099" style="stroke: #000000; stroke-width: 0.6"/>
      </g>
     </g>
    </g>
    <g id="ytick_25">
     <g id="line2d_35">
      <g>
       <use xlink:href="#m0b8dbedb36" x="55.997054" y="259.133579" style="stroke: #000000; stroke-width: 0.6"/>
      </g>
     </g>
    </g>
    <g id="ytick_26">
     <g id="line2d_36">
      <g>
       <use xlink:href="#m0b8dbedb36" x="55.997054" y="256.177033" style="stroke: #000000; stroke-width: 0.6"/>
      </g>
     </g>
    </g>
    <g id="ytick_27">
     <g id="line2d_37">
      <g>
       <use xlink:href="#m0b8dbedb36" x="55.997054" y="253.677309" style="stroke: #000000; stroke-width: 0.6"/>
      </g>
     </g>
    </g>
    <g id="ytick_28">
     <g id="line2d_38">
      <g>
       <use xlink:href="#m0b8dbedb36" x="55.997054" y="251.51195" style="stroke: #000000; stroke-width: 0.6"/>
      </g>
     </g>
    </g>
    <g id="ytick_29">
     <g id="line2d_39">
      <g>
       <use xlink:href="#m0b8dbedb36" x="55.997054" y="249.601968" style="stroke: #000000; stroke-width: 0.6"/>
      </g>
     </g>
    </g>
    <g id="ytick_30">
     <g id="line2d_40">
      <g>
       <use xlink:href="#m0b8dbedb36" x="55.997054" y="236.653282" style="stroke: #000000; stroke-width: 0.6"/>
      </g>
     </g>
    </g>
    <g id="ytick_31">
     <g id="line2d_41">
      <g>
       <use xlink:href="#m0b8dbedb36" x="55.997054" y="230.078217" style="stroke: #000000; stroke-width: 0.6"/>
      </g>
     </g>
    </g>
    <g id="ytick_32">
     <g id="line2d_42">
      <g>
       <use xlink:href="#m0b8dbedb36" x="55.997054" y="225.413134" style="stroke: #000000; stroke-width: 0.6"/>
      </g>
     </g>
    </g>
    <g id="ytick_33">
     <g id="line2d_43">
      <g>
       <use xlink:href="#m0b8dbedb36" x="55.997054" y="221.794614" style="stroke: #000000; stroke-width: 0.6"/>
      </g>
     </g>
    </g>
    <g id="ytick_34">
     <g id="line2d_44">
      <g>
       <use xlink:href="#m0b8dbedb36" x="55.997054" y="218.838069" style="stroke: #000000; stroke-width: 0.6"/>
      </g>
     </g>
    </g>
    <g id="ytick_35">
     <g id="line2d_45">
      <g>
       <use xlink:href="#m0b8dbedb36" x="55.997054" y="216.338345" style="stroke: #000000; stroke-width: 0.6"/>
      </g>
     </g>
    </g>
    <g id="ytick_36">
     <g id="line2d_46">
      <g>
       <use xlink:href="#m0b8dbedb36" x="55.997054" y="214.172985" style="stroke: #000000; stroke-width: 0.6"/>
      </g>
     </g>
    </g>
    <g id="ytick_37">
     <g id="line2d_47">
      <g>
       <use xlink:href="#m0b8dbedb36" x="55.997054" y="212.263003" style="stroke: #000000; stroke-width: 0.6"/>
      </g>
     </g>
    </g>
    <g id="ytick_38">
     <g id="line2d_48">
      <g>
       <use xlink:href="#m0b8dbedb36" x="55.997054" y="199.314318" style="stroke: #000000; stroke-width: 0.6"/>
      </g>
     </g>
    </g>
    <g id="ytick_39">
     <g id="line2d_49">
      <g>
       <use xlink:href="#m0b8dbedb36" x="55.997054" y="192.739252" style="stroke: #000000; stroke-width: 0.6"/>
      </g>
     </g>
    </g>
    <g id="ytick_40">
     <g id="line2d_50">
      <g>
       <use xlink:href="#m0b8dbedb36" x="55.997054" y="188.074169" style="stroke: #000000; stroke-width: 0.6"/>
      </g>
     </g>
    </g>
    <g id="ytick_41">
     <g id="line2d_51">
      <g>
       <use xlink:href="#m0b8dbedb36" x="55.997054" y="184.45565" style="stroke: #000000; stroke-width: 0.6"/>
      </g>
     </g>
    </g>
    <g id="ytick_42">
     <g id="line2d_52">
      <g>
       <use xlink:href="#m0b8dbedb36" x="55.997054" y="181.499104" style="stroke: #000000; stroke-width: 0.6"/>
      </g>
     </g>
    </g>
    <g id="ytick_43">
     <g id="line2d_53">
      <g>
       <use xlink:href="#m0b8dbedb36" x="55.997054" y="178.99938" style="stroke: #000000; stroke-width: 0.6"/>
      </g>
     </g>
    </g>
    <g id="ytick_44">
     <g id="line2d_54">
      <g>
       <use xlink:href="#m0b8dbedb36" x="55.997054" y="176.834021" style="stroke: #000000; stroke-width: 0.6"/>
      </g>
     </g>
    </g>
    <g id="ytick_45">
     <g id="line2d_55">
      <g>
       <use xlink:href="#m0b8dbedb36" x="55.997054" y="174.924039" style="stroke: #000000; stroke-width: 0.6"/>
      </g>
     </g>
    </g>
    <g id="ytick_46">
     <g id="line2d_56">
      <g>
       <use xlink:href="#m0b8dbedb36" x="55.997054" y="161.975353" style="stroke: #000000; stroke-width: 0.6"/>
      </g>
     </g>
    </g>
    <g id="ytick_47">
     <g id="line2d_57">
      <g>
       <use xlink:href="#m0b8dbedb36" x="55.997054" y="155.400288" style="stroke: #000000; stroke-width: 0.6"/>
      </g>
     </g>
    </g>
    <g id="ytick_48">
     <g id="line2d_58">
      <g>
       <use xlink:href="#m0b8dbedb36" x="55.997054" y="150.735204" style="stroke: #000000; stroke-width: 0.6"/>
      </g>
     </g>
    </g>
    <g id="ytick_49">
     <g id="line2d_59">
      <g>
       <use xlink:href="#m0b8dbedb36" x="55.997054" y="147.116685" style="stroke: #000000; stroke-width: 0.6"/>
      </g>
     </g>
    </g>
    <g id="ytick_50">
     <g id="line2d_60">
      <g>
       <use xlink:href="#m0b8dbedb36" x="55.997054" y="144.160139" style="stroke: #000000; stroke-width: 0.6"/>
      </g>
     </g>
    </g>
    <g id="ytick_51">
     <g id="line2d_61">
      <g>
       <use xlink:href="#m0b8dbedb36" x="55.997054" y="141.660415" style="stroke: #000000; stroke-width: 0.6"/>
      </g>
     </g>
    </g>
    <g id="ytick_52">
     <g id="line2d_62">
      <g>
       <use xlink:href="#m0b8dbedb36" x="55.997054" y="139.495056" style="stroke: #000000; stroke-width: 0.6"/>
      </g>
     </g>
    </g>
    <g id="ytick_53">
     <g id="line2d_63">
      <g>
       <use xlink:href="#m0b8dbedb36" x="55.997054" y="137.585074" style="stroke: #000000; stroke-width: 0.6"/>
      </g>
     </g>
    </g>
    <g id="ytick_54">
     <g id="line2d_64">
      <g>
       <use xlink:href="#m0b8dbedb36" x="55.997054" y="124.636388" style="stroke: #000000; stroke-width: 0.6"/>
      </g>
     </g>
    </g>
    <g id="ytick_55">
     <g id="line2d_65">
      <g>
       <use xlink:href="#m0b8dbedb36" x="55.997054" y="118.061323" style="stroke: #000000; stroke-width: 0.6"/>
      </g>
     </g>
    </g>
    <g id="ytick_56">
     <g id="line2d_66">
      <g>
       <use xlink:href="#m0b8dbedb36" x="55.997054" y="113.39624" style="stroke: #000000; stroke-width: 0.6"/>
      </g>
     </g>
    </g>
    <g id="ytick_57">
     <g id="line2d_67">
      <g>
       <use xlink:href="#m0b8dbedb36" x="55.997054" y="109.77772" style="stroke: #000000; stroke-width: 0.6"/>
      </g>
     </g>
    </g>
    <g id="ytick_58">
     <g id="line2d_68">
      <g>
       <use xlink:href="#m0b8dbedb36" x="55.997054" y="106.821174" style="stroke: #000000; stroke-width: 0.6"/>
      </g>
     </g>
    </g>
    <g id="ytick_59">
     <g id="line2d_69">
      <g>
       <use xlink:href="#m0b8dbedb36" x="55.997054" y="104.321451" style="stroke: #000000; stroke-width: 0.6"/>
      </g>
     </g>
    </g>
    <g id="ytick_60">
     <g id="line2d_70">
      <g>
       <use xlink:href="#m0b8dbedb36" x="55.997054" y="102.156091" style="stroke: #000000; stroke-width: 0.6"/>
      </g>
     </g>
    </g>
    <g id="ytick_61">
     <g id="line2d_71">
      <g>
       <use xlink:href="#m0b8dbedb36" x="55.997054" y="100.246109" style="stroke: #000000; stroke-width: 0.6"/>
      </g>
     </g>
    </g>
    <g id="ytick_62">
     <g id="line2d_72">
      <g>
       <use xlink:href="#m0b8dbedb36" x="55.997054" y="87.297423" style="stroke: #000000; stroke-width: 0.6"/>
      </g>
     </g>
    </g>
    <g id="ytick_63">
     <g id="line2d_73">
      <g>
       <use xlink:href="#m0b8dbedb36" x="55.997054" y="80.722358" style="stroke: #000000; stroke-width: 0.6"/>
      </g>
     </g>
    </g>
    <g id="ytick_64">
     <g id="line2d_74">
      <g>
       <use xlink:href="#m0b8dbedb36" x="55.997054" y="76.057275" style="stroke: #000000; stroke-width: 0.6"/>
      </g>
     </g>
    </g>
    <g id="ytick_65">
     <g id="line2d_75">
      <g>
       <use xlink:href="#m0b8dbedb36" x="55.997054" y="72.438755" style="stroke: #000000; stroke-width: 0.6"/>
      </g>
     </g>
    </g>
    <g id="ytick_66">
     <g id="line2d_76">
      <g>
       <use xlink:href="#m0b8dbedb36" x="55.997054" y="69.48221" style="stroke: #000000; stroke-width: 0.6"/>
      </g>
     </g>
    </g>
    <g id="ytick_67">
     <g id="line2d_77">
      <g>
       <use xlink:href="#m0b8dbedb36" x="55.997054" y="66.982486" style="stroke: #000000; stroke-width: 0.6"/>
      </g>
     </g>
    </g>
    <g id="ytick_68">
     <g id="line2d_78">
      <g>
       <use xlink:href="#m0b8dbedb36" x="55.997054" y="64.817127" style="stroke: #000000; stroke-width: 0.6"/>
      </g>
     </g>
    </g>
    <g id="ytick_69">
     <g id="line2d_79">
      <g>
       <use xlink:href="#m0b8dbedb36" x="55.997054" y="62.907144" style="stroke: #000000; stroke-width: 0.6"/>
      </g>
     </g>
    </g>
    <g id="ytick_70">
     <g id="line2d_80">
      <g>
       <use xlink:href="#m0b8dbedb36" x="55.997054" y="49.958459" style="stroke: #000000; stroke-width: 0.6"/>
      </g>
     </g>
    </g>
    <g id="ytick_71">
     <g id="line2d_81">
      <g>
       <use xlink:href="#m0b8dbedb36" x="55.997054" y="43.383393" style="stroke: #000000; stroke-width: 0.6"/>
      </g>
     </g>
    </g>
    <g id="ytick_72">
     <g id="line2d_82">
      <g>
       <use xlink:href="#m0b8dbedb36" x="55.997054" y="38.71831" style="stroke: #000000; stroke-width: 0.6"/>
      </g>
     </g>
    </g>
    <g id="ytick_73">
     <g id="line2d_83">
      <g>
       <use xlink:href="#m0b8dbedb36" x="55.997054" y="35.099791" style="stroke: #000000; stroke-width: 0.6"/>
      </g>
     </g>
    </g>
    <g id="ytick_74">
     <g id="line2d_84">
      <g>
       <use xlink:href="#m0b8dbedb36" x="55.997054" y="32.143245" style="stroke: #000000; stroke-width: 0.6"/>
      </g>
     </g>
    </g>
    <g id="ytick_75">
     <g id="line2d_85">
      <g>
       <use xlink:href="#m0b8dbedb36" x="55.997054" y="29.643521" style="stroke: #000000; stroke-width: 0.6"/>
      </g>
     </g>
    </g>
    <g id="ytick_76">
     <g id="line2d_86">
      <g>
       <use xlink:href="#m0b8dbedb36" x="55.997054" y="27.478162" style="stroke: #000000; stroke-width: 0.6"/>
      </g>
     </g>
    </g>
    <g id="text_19">
     <!-- Duration (minutes, log scale) -->
     <g transform="translate(19.417366 253.638334) rotate(-90) scale(0.1 -0.1)">
      <defs>
       <path id="DejaVuSans-44" d="M 1259 4147 
L 1259 519 
L 2022 519 
Q 2988 519 3436 956 
Q 3884 1394 3884 2338 
Q 3884 3275 3436 3711 
Q 2988 4147 2022 4147 
L 1259 4147 
z
M 628 4666 
L 1925 4666 
Q 3281 4666 3915 4102 
Q 4550 3538 4550 2338 
Q 4550 1131 3912 565 
Q 3275 0 1925 0 
L 628 0 
L 628 4666 
z
" transform="scale(0.015625)"/>
       <path id="DejaVuSans-20" transform="scale(0.015625)"/>
       <path id="DejaVuSans-28" d="M 1984 4856 
Q 1566 4138 1362 3434 
Q 1159 2731 1159 2009 
Q 1159 1288 1364 580 
Q 1569 -128 1984 -844 
L 1484 -844 
Q 1016 -109 783 600 
Q 550 1309 550 2009 
Q 550 2706 781 3412 
Q 1013 4119 1484 4856 
L 1984 4856 
z
" transform="scale(0.015625)"/>
       <path id="DejaVuSans-2c" d="M 750 794 
L 1409 794 
L 1409 256 
L 897 -744 
L 494 -744 
L 750 256 
L 750 794 
z
" transform="scale(0.015625)"/>
       <path id="DejaVuSans-29" d="M 513 4856 
L 1013 4856 
Q 1481 4119 1714 3412 
Q 1947 2706 1947 2009 
Q 1947 1309 1714 600 
Q 1481 -109 1013 -844 
L 513 -844 
Q 928 -128 1133 580 
Q 1338 1288 1338 2009 
Q 1338 2731 1133 3434 
Q 928 4138 513 4856 
z
" transform="scale(0.015625)"/>
      </defs>
      <use xlink:href="#DejaVuSans-44"/>
      <use xlink:href="#DejaVuSans-75" transform="translate(77.001953 0)"/>
      <use xlink:href="#DejaVuSans-72" transform="translate(140.380859 0)"/>
      <use xlink:href="#DejaVuSans-61" transform="translate(181.494141 0)"/>
      <use xlink:href="#DejaVuSans-74" transform="translate(242.773438 0)"/>
      <use xlink:href="#DejaVuSans-69" transform="translate(281.982422 0)"/>
      <use xlink:href="#DejaVuSans-6f" transform="translate(309.765625 0)"/>
      <use xlink:href="#DejaVuSans-6e" transform="translate(370.947266 0)"/>
      <use xlink:href="#DejaVuSans-20" transform="translate(434.326172 0)"/>
      <use xlink:href="#DejaVuSans-28" transform="translate(466.113281 0)"/>
      <use xlink:href="#DejaVuSans-6d" transform="translate(505.126953 0)"/>
      <use xlink:href="#DejaVuSans-69" transform="translate(602.539062 0)"/>
      <use xlink:href="#DejaVuSans-6e" transform="translate(630.322266 0)"/>
      <use xlink:href="#DejaVuSans-75" transform="translate(693.701172 0)"/>
      <use xlink:href="#DejaVuSans-74" transform="translate(757.080078 0)"/>
      <use xlink:href="#DejaVuSans-65" transform="translate(796.289062 0)"/>
      <use xlink:href="#DejaVuSans-73" transform="translate(857.8125 0)"/>
      <use xlink:href="#DejaVuSans-2c" transform="translate(909.912109 0)"/>
      <use xlink:href="#DejaVuSans-20" transform="translate(941.699219 0)"/>
      <use xlink:href="#DejaVuSans-6c" transform="translate(973.486328 0)"/>
      <use xlink:href="#DejaVuSans-6f" transform="translate(1001.269531 0)"/>
      <use xlink:href="#DejaVuSans-67" transform="translate(1062.451172 0)"/>
      <use xlink:href="#DejaVuSans-20" transform="translate(1125.927734 0)"/>
      <use xlink:href="#DejaVuSans-73" transform="translate(1157.714844 0)"/>
      <use xlink:href="#DejaVuSans-63" transform="translate(1209.814453 0)"/>
      <use xlink:href="#DejaVuSans-61" transform="translate(1264.794922 0)"/>
      <use xlink:href="#DejaVuSans-6c" transform="translate(1326.074219 0)"/>
      <use xlink:href="#DejaVuSans-65" transform="translate(1353.857422 0)"/>
      <use xlink:href="#DejaVuSans-29" transform="translate(1415.380859 0)"/>
     </g>
    </g>
   </g>
   <g id="line2d_87">
    <path d="M 55.997054 40.88367 
L 853.2 40.88367 
" clip-path="url(#pcb6a15a6a0)" style="fill: none; stroke-dasharray: 5.55,2.4; stroke-dashoffset: 0; stroke: #ff0000; stroke-width: 1.5"/>
   </g>
   <g id="patch_13">
    <path d="M 55.997054 334.96073 
L 55.997054 26.88 
" style="fill: none; stroke: #000000; stroke-width: 0.8; stroke-linejoin: miter; stroke-linecap: square"/>
   </g>
   <g id="patch_14">
    <path d="M 853.2 334.96073 
L 853.2 26.88 
" style="fill: none; stroke: #000000; stroke-width: 0.8; stroke-linejoin: miter; stroke-linecap: square"/>
   </g>
   <g id="patch_15">
    <path d="M 55.997054 334.96073 
L 853.2 334.96073 
" style="fill: none; stroke: #000000; stroke-width: 0.8; stroke-linejoin: miter; stroke-linecap: square"/>
   </g>
   <g id="patch_16">
    <path d="M 55.997054 26.88 
L 853.2 26.88 
" style="fill: none; stroke: #000000; stroke-width: 0.8; stroke-linejoin: miter; stroke-linecap: square"/>
   </g>
   <g id="text_20">
    <!-- Tile Generation Benchmark (Log Scale) -->
    <g transform="translate(337.277902 20.88) scale(0.12 -0.12)">
     <defs>
      <path id="DejaVuSans-54" d="M -19 4666 
L 3928 4666 
L 3928 4134 
L 2272 4134 
L 2272 0 
L 1638 0 
L 1638 4134 
L -19 4134 
L -19 4666 
z
" transform="scale(0.015625)"/>
      <path id="DejaVuSans-47" d="M 3809 666 
L 3809 1919 
L 2778 1919 
L 2778 2438 
L 4434 2438 
L 4434 434 
Q 4069 175 3628 42 
Q 3188 -91 2688 -91 
Q 1594 -91 976 548 
Q 359 1188 359 2328 
Q 359 3472 976 4111 
Q 1594 4750 2688 4750 
Q 3144 4750 3555 4637 
Q 3966 4525 4313 4306 
L 4313 3634 
Q 3963 3931 3569 4081 
Q 3175 4231 2741 4231 
Q 1884 4231 1454 3753 
Q 1025 3275 1025 2328 
Q 1025 1384 1454 906 
Q 1884 428 2741 428 
Q 3075 428 3337 486 
Q 3600 544 3809 666 
z
" transform="scale(0.015625)"/>
      <path id="DejaVuSans-42" d="M 1259 2228 
L 1259 519 
L 2272 519 
Q 2781 519 3026 730 
Q 3272 941 3272 1375 
Q 3272 1813 3026 2020 
Q 2781 2228 2272 2228 
L 1259 2228 
z
M 1259 4147 
L 1259 2741 
L 2194 2741 
Q 2656 2741 2882 2914 
Q 3109 3088 3109 3444 
Q 3109 3797 2882 3972 
Q 2656 4147 2194 4147 
L 1259 4147 
z
M 628 4666 
L 2241 4666 
Q 2963 4666 3353 4366 
Q 3744 4066 3744 3513 
Q 3744 3084 3544 2831 
Q 3344 2578 2956 2516 
Q 3422 2416 3680 2098 
Q 3938 1781 3938 1306 
Q 3938 681 3513 340 
Q 3088 0 2303 0 
L 628 0 
L 628 4666 
z
" transform="scale(0.015625)"/>
      <path id="DejaVuSans-68" d="M 3513 2113 
L 3513 0 
L 2938 0 
L 2938 2094 
Q 2938 2591 2744 2837 
Q 2550 3084 2163 3084 
Q 1697 3084 1428 2787 
Q 1159 2491 1159 1978 
L 1159 0 
L 581 0 
L 581 4863 
L 1159 4863 
L 1159 2956 
Q 1366 3272 1645 3428 
Q 1925 3584 2291 3584 
Q 2894 3584 3203 3211 
Q 3513 2838 3513 2113 
z
" transform="scale(0.015625)"/>
      <path id="DejaVuSans-6b" d="M 581 4863 
L 1159 4863 
L 1159 1991 
L 2875 3500 
L 3609 3500 
L 1753 1863 
L 3688 0 
L 2938 0 
L 1159 1709 
L 1159 0 
L 581 0 
L 581 4863 
z
" transform="scale(0.015625)"/>
      <path id="DejaVuSans-4c" d="M 628 4666 
L 1259 4666 
L 1259 531 
L 3531 531 
L 3531 0 
L 628 0 
L 628 4666 
z
" transform="scale(0.015625)"/>
      <path id="DejaVuSans-53" d="M 3425 4513 
L 3425 3897 
Q 3066 4069 2747 4153 
Q 2428 4238 2131 4238 
Q 1616 4238 1336 4038 
Q 1056 3838 1056 3469 
Q 1056 3159 1242 3001 
Q 1428 2844 1947 2747 
L 2328 2669 
Q 3034 2534 3370 2195 
Q 3706 1856 3706 1288 
Q 3706 609 3251 259 
Q 2797 -91 1919 -91 
Q 1588 -91 1214 -16 
Q 841 59 441 206 
L 441 856 
Q 825 641 1194 531 
Q 1563 422 1919 422 
Q 2459 422 2753 634 
Q 3047 847 3047 1241 
Q 3047 1584 2836 1778 
Q 2625 1972 2144 2069 
L 1759 2144 
Q 1053 2284 737 2584 
Q 422 2884 422 3419 
Q 422 4038 858 4394 
Q 1294 4750 2059 4750 
Q 2388 4750 2728 4690 
Q 3069 4631 3425 4513 
z
" transform="scale(0.015625)"/>
     </defs>
     <use xlink:href="#DejaVuSans-54"/>
     <use xlink:href="#DejaVuSans-69" transform="translate(57.958984 0)"/>
     <use xlink:href="#DejaVuSans-6c" transform="translate(85.742188 0)"/>
     <use xlink:href="#DejaVuSans-65" transform="translate(113.525391 0)"/>
     <use xlink:href="#DejaVuSans-20" transform="translate(175.048828 0)"/>
     <use xlink:href="#DejaVuSans-47" transform="translate(206.835938 0)"/>
     <use xlink:href="#DejaVuSans-65" transform="translate(284.326172 0)"/>
     <use xlink:href="#DejaVuSans-6e" transform="translate(345.849609 0)"/>
     <use xlink:href="#DejaVuSans-65" transform="translate(409.228516 0)"/>
     <use xlink:href="#DejaVuSans-72" transform="translate(470.751953 0)"/>
     <use xlink:href="#DejaVuSans-61" transform="translate(511.865234 0)"/>
     <use xlink:href="#DejaVuSans-74" transform="translate(573.144531 0)"/>
     <use xlink:href="#DejaVuSans-69" transform="translate(612.353516 0)"/>
     <use xlink:href="#DejaVuSans-6f" transform="translate(640.136719 0)"/>
     <use xlink:href="#DejaVuSans-6e" transform="translate(701.318359 0)"/>
     <use xlink:href="#DejaVuSans-20" transform="translate(764.697266 0)"/>
     <use xlink:href="#DejaVuSans-42" transform="translate(796.484375 0)"/>
     <use xlink:href="#DejaVuSans-65" transform="translate(865.087891 0)"/>
     <use xlink:href="#DejaVuSans-6e" transform="translate(926.611328 0)"/>
     <use xlink:href="#DejaVuSans-63" transform="translate(989.990234 0)"/>
     <use xlink:href="#DejaVuSans-68" transform="translate(1044.970703 0)"/>
     <use xlink:href="#DejaVuSans-6d" transform="translate(1108.349609 0)"/>
     <use xlink:href="#DejaVuSans-61" transform="translate(1205.761719 0)"/>
     <use xlink:href="#DejaVuSans-72" transform="translate(1267.041016 0)"/>
     <use xlink:href="#DejaVuSans-6b" transform="translate(1308.154297 0)"/>
     <use xlink:href="#DejaVuSans-20" transform="translate(1366.064453 0)"/>
     <use xlink:href="#DejaVuSans-28" transform="translate(1397.851562 0)"/>
     <use xlink:href="#DejaVuSans-4c" transform="translate(1436.865234 0)"/>
     <use xlink:href="#DejaVuSans-6f" transform="translate(1490.828125 0)"/>
     <use xlink:href="#DejaVuSans-67" transform="translate(1552.009766 0)"/>
     <use xlink:href="#DejaVuSans-20" transform="translate(1615.486328 0)"/>
     <use xlink:href="#DejaVuSans-53" transform="translate(1647.273438 0)"/>
     <use xlink:href="#DejaVuSans-63" transform="translate(1710.75 0)"/>
     <use xlink:href="#DejaVuSans-61" transform="translate(1765.730469 0)"/>
     <use xlink:href="#DejaVuSans-6c" transform="translate(1827.009766 0)"/>
     <use xlink:href="#DejaVuSans-65" transform="translate(1854.792969 0)"/>
     <use xlink:href="#DejaVuSans-29" transform="translate(1916.316406 0)"/>
    </g>
   </g>
   <g id="legend_1">
    <g id="patch_17">
     <path d="M 643.209375 189.759428 
L 846.2 189.759428 
Q 848.2 189.759428 848.2 187.759428 
L 848.2 174.081303 
Q 848.2 172.081303 846.2 172.081303 
L 643.209375 172.081303 
Q 641.209375 172.081303 641.209375 174.081303 
L 641.209375 187.759428 
Q 641.209375 189.759428 643.209375 189.759428 
z
" style="fill: #ffffff; opacity: 0.8; stroke: #cccccc; stroke-linejoin: miter"/>
    </g>
    <g id="line2d_88">
     <path d="M 645.209375 180.17974 
L 655.209375 180.17974 
L 665.209375 180.17974 
" style="fill: none; stroke-dasharray: 5.55,2.4; stroke-dashoffset: 0; stroke: #ff0000; stroke-width: 1.5"/>
    </g>
    <g id="text_21">
     <!-- Sen2Cor processing time (35 min) -->
     <g transform="translate(673.209375 183.67974) scale(0.1 -0.1)">
      <defs>
       <path id="DejaVuSans-43" d="M 4122 4306 
L 4122 3641 
Q 3803 3938 3442 4084 
Q 3081 4231 2675 4231 
Q 1875 4231 1450 3742 
Q 1025 3253 1025 2328 
Q 1025 1406 1450 917 
Q 1875 428 2675 428 
Q 3081 428 3442 575 
Q 3803 722 4122 1019 
L 4122 359 
Q 3791 134 3420 21 
Q 3050 -91 2638 -91 
Q 1578 -91 968 557 
Q 359 1206 359 2328 
Q 359 3453 968 4101 
Q 1578 4750 2638 4750 
Q 3056 4750 3426 4639 
Q 3797 4528 4122 4306 
z
" transform="scale(0.015625)"/>
      </defs>
      <use xlink:href="#DejaVuSans-53"/>
      <use xlink:href="#DejaVuSans-65" transform="translate(63.476562 0)"/>
      <use xlink:href="#DejaVuSans-6e" transform="translate(125 0)"/>
      <use xlink:href="#DejaVuSans-32" transform="translate(188.378906 0)"/>
      <use xlink:href="#DejaVuSans-43" transform="translate(252.001953 0)"/>
      <use xlink:href="#DejaVuSans-6f" transform="translate(321.826172 0)"/>
      <use xlink:href="#DejaVuSans-72" transform="translate(383.007812 0)"/>
      <use xlink:href="#DejaVuSans-20" transform="translate(424.121094 0)"/>
      <use xlink:href="#DejaVuSans-70" transform="translate(455.908203 0)"/>
      <use xlink:href="#DejaVuSans-72" transform="translate(519.384766 0)"/>
      <use xlink:href="#DejaVuSans-6f" transform="translate(558.248047 0)"/>
      <use xlink:href="#DejaVuSans-63" transform="translate(619.429688 0)"/>
      <use xlink:href="#DejaVuSans-65" transform="translate(674.410156 0)"/>
      <use xlink:href="#DejaVuSans-73" transform="translate(735.933594 0)"/>
      <use xlink:href="#DejaVuSans-73" transform="translate(788.033203 0)"/>
      <use xlink:href="#DejaVuSans-69" transform="translate(840.132812 0)"/>
      <use xlink:href="#DejaVuSans-6e" transform="translate(867.916016 0)"/>
      <use xlink:href="#DejaVuSans-67" transform="translate(931.294922 0)"/>
      <use xlink:href="#DejaVuSans-20" transform="translate(994.771484 0)"/>
      <use xlink:href="#DejaVuSans-74" transform="translate(1026.558594 0)"/>
      <use xlink:href="#DejaVuSans-69" transform="translate(1065.767578 0)"/>
      <use xlink:href="#DejaVuSans-6d" transform="translate(1093.550781 0)"/>
      <use xlink:href="#DejaVuSans-65" transform="translate(1190.962891 0)"/>
      <use xlink:href="#DejaVuSans-20" transform="translate(1252.486328 0)"/>
      <use xlink:href="#DejaVuSans-28" transform="translate(1284.273438 0)"/>
      <use xlink:href="#DejaVuSans-33" transform="translate(1323.287109 0)"/>
      <use xlink:href="#DejaVuSans-35" transform="translate(1386.910156 0)"/>
      <use xlink:href="#DejaVuSans-20" transform="translate(1450.533203 0)"/>
      <use xlink:href="#DejaVuSans-6d" transform="translate(1482.320312 0)"/>
      <use xlink:href="#DejaVuSans-69" transform="translate(1579.732422 0)"/>
      <use xlink:href="#DejaVuSans-6e" transform="translate(1607.515625 0)"/>
      <use xlink:href="#DejaVuSans-29" transform="translate(1670.894531 0)"/>
     </g>
    </g>
   </g>
  </g>
 </g>
 <defs>
  <clipPath id="pcb6a15a6a0">
   <rect x="55.997054" y="26.88" width="797.202946" height="308.08073"/>
  </clipPath>
 </defs>
</svg>
